<svg width="32" height="37" viewBox="0 0 32 37" fill="none" xmlns="http://www.w3.org/2000/svg">
<path d="M19.4608 22.4717C20.4114 21.8242 21.1843 20.9483 21.7084 19.9245C22.2326 18.9006 22.4913 17.7615 22.4608 16.6117C22.3917 15.7982 22.1006 15.0192 21.6192 14.3597C21.1378 13.7002 20.4846 13.1855 19.7308 12.8717C19.1008 12.5817 18.4508 12.3417 17.8208 12.1117C15.9708 11.4417 14.3708 10.8517 13.5208 9.04172C12.9908 7.90172 12.9408 7.45172 13.6008 6.48172C13.8962 6.05626 14.2653 5.6871 14.6908 5.39172C15.2559 4.98457 15.9342 4.76429 16.6308 4.76172C16.7801 4.76826 16.9275 4.72615 17.0508 4.64172C17.1145 4.59646 17.1717 4.54262 17.2208 4.48172C17.2869 4.3905 17.3297 4.28447 17.3454 4.17291C17.361 4.06135 17.3492 3.94764 17.3108 3.84172C16.6408 1.84172 13.7508 1.13172 12.0508 1.50172C11.4539 1.61842 10.8841 1.84566 10.3708 2.17172C10.0714 2.3778 9.81076 2.63508 9.60079 2.93172C9.05835 1.65017 8.04042 0.628662 6.76079 0.0817216C6.35155 -0.0179018 5.92544 -0.0265513 5.51249 0.056383C5.09955 0.139317 4.70983 0.311817 4.37079 0.561722H4.31079C3.80575 0.886815 3.38719 1.32966 3.09108 1.85222C2.79496 2.37477 2.63014 2.96141 2.61078 3.56172C2.67926 5.28816 3.39295 6.92609 4.61078 8.15172C3.99112 8.27628 3.4007 8.5172 2.87079 8.86172C2.57518 9.05981 2.3092 9.29887 2.08078 9.57172C1.25078 10.5717 0.330789 12.5717 1.42079 14.0317C1.48234 14.1121 1.56084 14.178 1.65071 14.2247C1.74058 14.2713 1.83961 14.2976 1.94079 14.3017C2.09062 14.3131 2.23957 14.2705 2.36078 14.1817L2.48079 14.0817C2.89508 13.6387 3.3542 13.2399 3.85079 12.8917C4.53048 12.3245 5.3849 12.0088 6.27012 11.9979C7.15535 11.9869 8.0173 12.2814 8.71079 12.8317C9.80079 13.7117 9.78079 14.6117 9.71079 15.9617C9.67744 16.6023 9.69751 17.2445 9.77079 17.8817C10.0908 20.2417 10.5408 22.3017 12.7708 23.6417C15.3008 25.1517 17.4108 23.7317 18.9508 22.6417C19.0985 22.5589 19.242 22.4688 19.3808 22.3717L19.4608 22.4717Z" fill="#F9B233"/>
<path d="M19.1605 21.8417C17.2605 23.1417 15.4805 24.4217 13.2605 23.1017C11.2605 21.9017 10.8805 20.1017 10.5805 17.8517C10.2805 15.6017 11.1205 13.8517 9.20046 12.3517C6.74046 10.3517 4.00047 11.5717 2.03047 13.6617C1.24047 12.6617 1.92047 10.9617 2.67047 10.0917C3.67047 8.89168 4.83046 9.00168 6.04046 8.53168C4.04046 6.93168 1.89046 3.11168 4.84046 1.15168C7.39046 -0.548317 8.91046 2.91168 9.84046 4.73168C9.93046 3.23168 10.8405 2.50168 12.3205 2.18168C13.8005 1.86168 16.1605 2.49168 16.6805 4.03168C15.9601 4.0463 15.2541 4.23601 14.6234 4.58446C13.9927 4.9329 13.4563 5.4296 13.0605 6.03168C12.687 6.48455 12.4713 7.04679 12.4461 7.63323C12.4208 8.21967 12.5874 8.79837 12.9205 9.28168C14.2005 12.0417 17.0205 12.2817 19.4705 13.4617C23.9705 15.5617 21.2505 21.7417 17.3005 22.6317L19.1605 21.8417Z" fill="#3AAA35"/>
<path d="M17.6902 31.1316C18.0168 30.8957 18.2936 30.5975 18.5047 30.2543C18.7158 29.9111 18.857 29.5296 18.9202 29.1316C19.2162 29.0895 19.4976 28.9763 19.7402 28.8016C20.2643 28.3839 20.6971 27.8631 21.0119 27.2714C21.3266 26.6797 21.5167 26.0297 21.5702 25.3616C21.6165 24.947 21.5645 24.5273 21.4186 24.1364C21.2727 23.7456 21.0369 23.3945 20.7302 23.1116C20.6196 23.0096 20.4785 22.9465 20.3287 22.9321C20.1788 22.9176 20.0284 22.9526 19.9002 23.0316L19.0902 23.5516L18.8202 23.7316L15.9802 25.0316C15.9436 25.0455 15.9097 25.0659 15.8802 25.0916C15.7633 25.1652 15.6723 25.2736 15.6202 25.4016C15.0952 25.5873 14.5326 25.6415 13.9818 25.5596C13.4309 25.4777 12.9085 25.2621 12.4602 24.9316C10.7865 23.4603 9.6297 21.4902 9.16024 19.3116C9.03931 18.4304 9.00916 17.5391 9.07024 16.6516C9.09493 16.4793 9.13168 16.3089 9.18023 16.1416C9.45023 14.9816 9.59024 14.1416 9.12024 13.7116C8.89013 13.4937 8.58833 13.3673 8.27159 13.3563C7.95484 13.3452 7.64497 13.4503 7.40023 13.6516C6.23844 14.693 5.47779 16.1081 5.25023 17.6516H5.13024C3.92249 17.5125 2.70702 17.8378 1.73024 18.5616C1.25263 18.8323 0.846518 19.213 0.545628 19.6722C0.244738 20.1314 0.0577573 20.6557 0.000233234 21.2016C-0.00310008 21.3298 0.0293526 21.4564 0.0939375 21.5671C0.158522 21.6779 0.25269 21.7685 0.36588 21.8287C0.479069 21.8889 0.606799 21.9164 0.734746 21.9081C0.862692 21.8998 0.985794 21.856 1.09024 21.7816L1.19024 21.7016C1.51987 21.5151 1.88404 21.3976 2.26055 21.3563C2.63706 21.3151 3.01803 21.3509 3.38024 21.4616C3.62279 21.5211 3.85767 21.6084 4.08024 21.7216C3.08024 22.4916 2.21023 24.4216 2.43023 25.3016C2.62598 25.8878 2.94634 26.4245 3.36926 26.8751C3.79218 27.3256 4.30766 27.6792 4.88024 27.9116C5.21544 28.0586 5.58189 28.12 5.94668 28.0903C6.31147 28.0606 6.66318 27.9408 6.97023 27.7416C7.03917 27.6769 7.10271 27.6067 7.16024 27.5316C7.28334 27.4092 7.35653 27.2453 7.36557 27.0719C7.37462 26.8984 7.31889 26.7279 7.20919 26.5932C7.0995 26.4586 6.94368 26.3696 6.77201 26.3434C6.60033 26.3172 6.42506 26.3558 6.28024 26.4516H6.22023C6.19824 26.4616 6.17437 26.4667 6.15023 26.4667C6.1261 26.4667 6.10223 26.4616 6.08024 26.4516C6.19722 26.28 6.35094 26.1365 6.53024 26.0316C6.66024 25.9416 6.79024 25.8716 6.89024 25.8116C7.64024 25.4216 7.89024 25.4316 8.45024 26.4816C8.65785 26.8824 8.83826 27.2967 8.99024 27.7216C9.32161 28.9819 10.1375 30.0602 11.2602 30.7216C11.6737 30.9862 12.1544 31.1268 12.6452 31.1268C13.1361 31.1268 13.6167 30.9862 14.0302 30.7216C14.211 30.5994 14.3727 30.4511 14.5102 30.2816C14.6951 30.6893 15.0113 31.0232 15.4083 31.2299C15.8054 31.4366 16.2603 31.5041 16.7002 31.4216C17.059 31.3826 17.4025 31.2555 17.7002 31.0516L17.6902 31.1316Z" fill="#F9B233"/>
<path d="M19.8906 23.9616C17.8006 25.3916 14.4806 27.3816 12.0306 25.4716C10.2082 23.8913 8.94253 21.7667 8.42062 19.4116C8.29246 18.4808 8.25896 17.5393 8.32063 16.6016C8.32063 16.1916 8.91062 14.5316 8.58062 14.2116C7.50062 13.1516 5.16063 17.7616 6.07063 19.0316C4.80063 17.0316 0.650625 19.2716 0.640625 21.1716C1.4546 20.6766 2.42781 20.5137 3.35863 20.7166C4.28946 20.9195 5.10655 21.4727 5.64062 22.2616C4.55062 20.9916 2.87063 24.2616 3.07063 25.1016C3.39063 26.3916 5.50062 28.1016 6.71062 26.9916C6.60759 27.0791 6.48382 27.1387 6.35118 27.1647C6.21854 27.1907 6.08145 27.1822 5.95302 27.14C5.82459 27.0979 5.70912 27.0235 5.61766 26.924C5.5262 26.8245 5.4618 26.7032 5.43062 26.5716C5.32062 25.9716 6.18062 25.4316 6.60062 25.2116C7.84062 24.5516 8.41062 24.9316 9.09062 26.1516C9.89062 27.5616 10.0006 29.2916 11.6106 30.1516C13.2206 31.0116 14.3606 30.1516 14.6106 28.4116C15.1206 29.2916 14.9206 31.0116 16.6906 30.8016C16.9858 30.7198 17.2602 30.5765 17.496 30.381C17.7318 30.1855 17.9235 29.9424 18.0586 29.6675C18.1937 29.3926 18.269 29.0923 18.2797 28.7862C18.2904 28.4801 18.2362 28.1753 18.1206 27.8916C19.1206 29.8916 22.2406 25.3016 20.3106 23.5916C19.1114 24.5099 17.7564 25.2044 16.3106 25.6416L19.8906 23.9616Z" fill="#008D36"/>
<path d="M26.99 23.1317C27.2727 22.9797 27.5125 22.7589 27.6872 22.4897C27.862 22.2206 27.9662 21.9117 27.99 21.5917C27.9781 21.0102 27.7373 20.4569 27.32 20.0517C27.5508 19.9486 27.7717 19.8247 27.98 19.6817C28.3096 19.4675 28.5869 19.182 28.7911 18.8462C28.9954 18.5103 29.1215 18.1329 29.16 17.7417C29.1321 17.2505 29.0073 16.7696 28.7928 16.3268C28.5783 15.884 28.2783 15.488 27.91 15.1617C27.71 14.9217 27.52 14.7017 27.39 14.5117C26.73 13.5117 26.86 13.3817 27.44 12.9817L27.54 12.9217C28.34 12.4117 28.99 12.4617 29.54 13.0817C29.6347 13.1959 29.7628 13.2775 29.9063 13.3152C30.0498 13.3529 30.2015 13.3446 30.34 13.2917L30.48 13.2217C30.58 13.1537 30.6603 13.0606 30.7129 12.9518C30.7656 12.843 30.7887 12.7223 30.78 12.6017C30.78 12.4217 30.78 12.2717 30.78 12.1317C30.8224 11.5368 30.6716 10.944 30.35 10.4417C29.8663 9.63428 29.2023 8.94976 28.41 8.44169C27.769 7.99815 27.0028 7.77148 26.2237 7.79487C25.4445 7.81826 24.6933 8.09049 24.08 8.57169C23.92 8.68169 23.75 8.80169 23.58 8.94169C23.5305 8.60274 23.5754 8.25669 23.71 7.94169C23.8999 7.52365 24.2142 7.17442 24.61 6.94169C25.0476 6.65771 25.4221 6.28667 25.71 5.85169C25.7617 5.75472 25.7887 5.64655 25.7887 5.53669C25.7887 5.42682 25.7617 5.31865 25.71 5.22169C25.6668 5.11936 25.5997 5.02882 25.5145 4.95752C25.4293 4.88623 25.3284 4.83624 25.22 4.81169C24.587 4.64121 23.9247 4.60834 23.2778 4.71529C22.631 4.82223 22.0146 5.06651 21.47 5.43169C20.5611 6.10725 19.8666 7.03092 19.47 8.09169L19.36 8.02169C18.9651 7.72846 18.5097 7.52694 18.0271 7.4318C17.5445 7.33666 17.0467 7.35029 16.57 7.47169C16.2648 7.57429 15.9753 7.71903 15.71 7.90169C15.3102 8.12037 14.9822 8.45015 14.7657 8.8512C14.5492 9.25225 14.4535 9.7074 14.49 10.1617C14.5152 10.3026 14.5836 10.4323 14.6857 10.5326C14.7879 10.6329 14.9187 10.699 15.06 10.7217C15.5568 10.8022 16.0633 10.8022 16.56 10.7217C16.9734 10.6471 17.3967 10.6471 17.81 10.7217C18.2706 10.8555 18.7137 11.0434 19.13 11.2817C19.4 11.4217 19.65 11.5517 19.9 11.6617C21.0764 12.2724 22.0081 13.2676 22.54 14.4817C23.47 16.3517 22.62 18.1517 21.71 20.0617C21.1 21.3617 20.49 22.9817 21.21 24.0617C21.442 24.3606 21.75 24.5916 22.1018 24.7306C22.4537 24.8696 22.8365 24.9114 23.21 24.8517C23.88 24.8124 24.5281 24.5987 25.09 24.2317C25.4264 24.0174 25.6911 23.7075 25.85 23.3417C25.9553 23.4208 26.0813 23.4676 26.2126 23.4765C26.344 23.4853 26.4751 23.4559 26.59 23.3917L26.99 23.1517V23.1317Z" fill="#F9B233"/>
<path d="M23.1606 14.1716C22.5428 12.817 21.4857 11.7106 20.1606 11.0316C19.4556 10.6391 18.7199 10.3047 17.9606 10.0316C17.0206 9.80165 16.0506 10.2316 15.1606 10.0916C15.0106 9.26165 16.0106 8.42165 16.7706 8.18165C17.9706 7.80165 18.7706 8.68165 19.8406 9.12165C20.6106 6.63165 22.3906 4.91165 25.0906 5.54165C24.5706 6.39165 23.4206 6.63165 23.0306 7.70165C22.843 8.07463 22.7769 8.49696 22.8415 8.90942C22.906 9.32189 23.098 9.70381 23.3906 10.0016C24.8006 8.70165 26.1106 7.88165 28.0306 9.00165C28.7234 9.4486 29.3021 10.0513 29.7206 10.7616C30.1706 11.5216 30.0106 11.8216 30.0606 12.6016C29.8928 12.3865 29.6828 12.208 29.4435 12.0771C29.2041 11.9461 28.9406 11.8655 28.6689 11.8402C28.3973 11.8149 28.1233 11.8455 27.8639 11.93C27.6046 12.0145 27.3652 12.1512 27.1606 12.3316C25.9306 13.1116 26.0706 13.8116 26.8006 14.9016C27.3306 15.7016 28.5306 16.6216 28.4506 17.6816C28.3506 18.9216 26.9306 19.5916 25.8706 19.6816C27.1006 20.6816 28.0506 21.7416 26.2406 22.6816C25.8506 22.1016 25.1706 22.4516 24.8406 21.8316C26.0106 23.1216 24.3306 23.9816 23.1506 24.0616C20.6006 24.2116 21.6806 21.5816 22.3006 20.2816C23.2506 18.3816 24.2206 16.3216 23.1606 14.1716Z" fill="#008D36"/>
<path d="M14.8801 20.0817C14.5998 19.3063 14.5998 18.4572 14.8801 17.6817C15.6901 16.3717 16.6401 17.6117 16.8801 18.5517C16.5401 17.8017 17.0801 16.2817 18.1001 16.3017C19.8601 16.3517 19.1001 19.0317 18.2301 19.4217C19.2301 18.5617 20.3501 19.1217 20.5601 20.3717C20.5881 20.6866 20.5498 21.0038 20.4475 21.3029C20.3453 21.602 20.1815 21.8763 19.9666 22.1082C19.7517 22.34 19.4906 22.5242 19.2001 22.6488C18.9096 22.7734 18.5962 22.8357 18.2801 22.8317C17.5207 22.7153 16.8058 22.3994 16.2085 21.9162C15.6111 21.4331 15.1527 20.8 14.8801 20.0817Z" fill="#F9B233"/>
<path d="M19.2203 22.4117C20.3403 23.9317 21.5303 25.4717 22.6203 27.0617L24.8703 30.3417C25.3003 30.9617 25.7703 31.9817 26.4103 32.2917C26.0647 31.6801 25.5464 31.1841 24.9203 30.8656C24.2942 30.5472 23.588 30.4206 22.8903 30.5017C21.4403 30.7717 19.8903 32.9017 21.1403 34.2117C21.1403 32.4817 24.1403 32.3017 25.3503 32.6717C26.5603 33.0417 28.5703 35.1217 29.3503 36.3117C28.7303 34.6217 27.6903 32.9717 27.8303 31.0417C28.0287 30.227 28.4938 29.5021 29.1515 28.9821C29.8092 28.4621 30.6218 28.1768 31.4603 28.1717C30.4603 26.2317 25.9103 28.7817 26.8603 30.6417C26.0503 30.4017 25.0403 28.7517 24.5603 28.0717C23.8403 27.0717 23.1103 25.9817 22.3503 24.9717C21.7803 24.2117 21.2503 23.4117 20.7103 22.6217C20.1703 21.8317 19.8503 21.6217 19.0303 22.3617C19.0869 22.5293 19.1789 22.6828 19.3003 22.8117L19.2203 22.4117Z" fill="#F9B233"/>
</svg>
