<svg width="26" height="40" viewBox="0 0 26 40" fill="none" xmlns="http://www.w3.org/2000/svg">
<path d="M12.9999 21.6464C18.9774 21.6464 23.8231 16.8007 23.8231 10.8232C23.8231 4.84562 18.9774 0 12.9999 0C7.02238 0 2.17676 4.8457 2.17676 10.8232C2.18409 16.7976 7.0255 21.6391 12.9999 21.6464ZM12.9999 4.99533C16.2185 4.99533 18.8278 7.60453 18.8278 10.8232C18.8278 14.0419 16.2186 16.6511 12.9999 16.6511C9.78121 16.6511 7.17201 14.0419 7.17201 10.8232C7.17201 7.60453 9.78128 4.99533 12.9999 4.99533Z" fill="#FF9800"/>
<path d="M23.602 26.775C24.7782 26.0002 25.4869 24.6867 25.4886 23.2782C25.505 22.1093 24.8454 21.0359 23.7952 20.5224C22.7162 19.9835 21.4246 20.1049 20.4649 20.8355C16.0173 24.078 9.98489 24.078 5.53725 20.8355C4.57612 20.1087 3.28678 19.9875 2.20701 20.5224C1.15729 21.0359 0.49736 22.1081 0.511956 23.2765C0.514454 24.6847 1.22293 25.9979 2.39855 26.7732C3.90683 27.7763 5.54935 28.5611 7.27734 29.1044C7.57043 29.1954 7.87288 29.2798 8.18485 29.3575L3.15292 34.278C1.83291 35.5587 1.80098 37.667 3.08174 38.9871C4.36249 40.3071 6.47075 40.339 7.79085 39.0583C7.81832 39.0316 7.84533 39.0045 7.87187 38.9769L13.0004 33.6684L18.139 38.9868C19.4186 40.3079 21.527 40.3414 22.848 39.0618C24.169 37.7821 24.2026 35.6738 22.9229 34.3527C22.8962 34.3251 22.8689 34.2979 22.8412 34.2712L17.8176 29.3558C18.1295 29.2759 18.4331 29.191 18.7283 29.1011C20.4545 28.5599 22.0954 27.7767 23.602 26.775Z" fill="#FF9800"/>
</svg>
