<svg width="161" height="18" viewBox="0 0 161 18" fill="none" xmlns="http://www.w3.org/2000/svg">
<path d="M6.824 17.336C4.952 17.336 3.416 16.808 2.216 15.752C1.016 14.696 0.416 13.28 0.416 11.504V0.199999H3.704V11.24C3.704 12.12 3.952 12.816 4.448 13.328C4.96 13.84 5.752 14.096 6.824 14.096C7.896 14.096 8.68 13.84 9.176 13.328C9.688 12.816 9.944 12.12 9.944 11.24V0.199999H13.256V11.504C13.256 13.28 12.656 14.696 11.456 15.752C10.256 16.808 8.712 17.336 6.824 17.336ZM19.7677 13.832H26.8957V17H15.5437V14.36L22.5277 3.368H15.7117V0.199999H26.7517V2.816L19.7677 13.832ZM39.2354 8.288C40.7074 9.136 41.4434 10.416 41.4434 12.128C41.4434 13.552 40.9394 14.72 39.9314 15.632C38.9234 16.544 37.6834 17 36.2114 17H29.0834V0.199999H35.7074C37.1474 0.199999 38.3554 0.647999 39.3314 1.544C40.3234 2.424 40.8194 3.552 40.8194 4.928C40.8194 6.32 40.2914 7.44 39.2354 8.288ZM35.7074 3.296H32.3954V6.992H35.7074C36.2194 6.992 36.6434 6.816 36.9794 6.464C37.3314 6.112 37.5074 5.672 37.5074 5.144C37.5074 4.616 37.3394 4.176 37.0034 3.824C36.6674 3.472 36.2354 3.296 35.7074 3.296ZM36.2114 13.904C36.7714 13.904 37.2354 13.72 37.6034 13.352C37.9714 12.968 38.1554 12.488 38.1554 11.912C38.1554 11.352 37.9714 10.888 37.6034 10.52C37.2354 10.136 36.7714 9.944 36.2114 9.944H32.3954V13.904H36.2114ZM46.9267 13.832H54.0067V17H43.6147V0.199999H53.8867V3.368H46.9267V6.944H53.2867V10.064H46.9267V13.832ZM69.4693 17H65.6533L59.6533 9.128V17H56.3413V0.199999H59.6533V7.616L65.4133 0.199999H69.2293L63.0133 8.36L69.4693 17Z" fill="#62B067"/>
<path d="M74.4189 13.832H80.8269V17H71.1069V0.199999H74.4189V13.832ZM93.9772 17L92.9692 13.976H86.2732L85.2652 17H81.6892L87.5692 0.199999H91.6732L97.5772 17H93.9772ZM87.3292 10.88H91.9372L89.6332 4.016L87.3292 10.88ZM108.424 17L105.04 11.168H102.52V17H99.2084V0.199999H105.928C107.48 0.199999 108.8 0.743999 109.888 1.832C110.976 2.92 111.52 4.232 111.52 5.768C111.52 6.808 111.224 7.776 110.632 8.672C110.04 9.552 109.256 10.216 108.28 10.664L112 17H108.424ZM102.52 3.296V8.264H105.928C106.552 8.264 107.088 8.024 107.536 7.544C107.984 7.048 108.208 6.456 108.208 5.768C108.208 5.08 107.984 4.496 107.536 4.016C107.088 3.536 106.552 3.296 105.928 3.296H102.52ZM117.304 16.712C116.904 17.112 116.424 17.312 115.864 17.312C115.304 17.312 114.824 17.112 114.424 16.712C114.024 16.312 113.824 15.832 113.824 15.272C113.824 14.712 114.024 14.232 114.424 13.832C114.824 13.432 115.304 13.232 115.864 13.232C116.424 13.232 116.904 13.432 117.304 13.832C117.704 14.232 117.904 14.712 117.904 15.272C117.904 15.832 117.704 16.312 117.304 16.712Z" fill="white"/>
<path d="M130.35 0.199999H133.662V17H131.142L123.942 6.728V17H120.63V0.199999H123.15L130.35 10.448V0.199999ZM140.091 13.832H147.171V17H136.779V0.199999H147.051V3.368H140.091V6.944H146.451V10.064H140.091V13.832ZM160.617 0.199999V3.368H156.081V17H152.769V3.368H148.257V0.199999H160.617Z" fill="#4790D1"/>
</svg>
