<svg width="30" height="30" viewBox="0 0 30 30" fill="none" xmlns="http://www.w3.org/2000/svg">
<path fill-rule="evenodd" clip-rule="evenodd" d="M30 14.999C30 12.4753 28.3044 10.499 25.5 10.499H20.8905L20.9322 10.3854C20.9739 10.2727 21.0914 9.96302 21.2055 9.66227L21.2061 9.66072L21.2072 9.65777C21.3076 9.39316 21.4051 9.13625 21.4456 9.02738C21.7308 8.26186 21.9389 7.64506 22.1073 7.03422C22.3619 6.11097 22.5 5.27919 22.5 4.49902C22.5 2.29101 21.1378 0.919601 19.1224 0.332753C18.2134 0.068066 17.4222 -0.0011141 16.5 -0.000976357H15.7807L15.3304 0.559851C14.8217 1.19337 13.8225 2.33511 12.6706 3.65142L12.6706 3.65145L12.6705 3.65153L12.6705 3.65154C10.5454 6.07993 7.90031 9.10242 6.85551 10.6242C6.5844 10.5436 6.29725 10.5004 6 10.5004H3C1.34315 10.5004 0 11.8436 0 13.5004V27.0004C0 28.6573 1.34315 30.0004 3 30.0004H6C7.0307 30.0004 7.93999 29.4806 8.48007 28.6889C8.93512 28.9832 9.44283 29.2288 9.99469 29.4263C11.2582 29.8784 12.5113 30.0172 13.5516 29.9981L24 29.999C28.1327 29.999 30 23.9144 30 14.999ZM11.0053 26.6014C9.67795 26.1265 9 25.3521 9 23.9988V13.5004V13.4988C9 13.1385 9.06665 12.8194 9.21257 12.4788C9.47468 11.8668 11.8529 9.15349 14.107 6.58179L14.1071 6.58166L14.1071 6.58165C15.2705 5.25443 16.4007 3.96494 17.1899 3.02148C17.5671 3.04977 17.9226 3.10773 18.2837 3.21289C19.1433 3.46318 19.5 3.82232 19.5 4.49878C19.5 4.97366 19.4039 5.55226 19.2152 6.23669C19.0742 6.74815 18.8916 7.28934 18.6344 7.97978C18.598 8.07745 18.5074 8.31633 18.4108 8.57072L18.41 8.57307C18.2919 8.88421 18.1653 9.21795 18.1184 9.34461C17.9234 9.87204 17.7949 10.2604 17.707 10.6133C17.3333 12.1133 17.7082 13.4988 19.5 13.4988H25.5C26.5368 13.4988 27 14.0386 27 14.9988C27 22.1849 25.5227 26.9988 24 26.9988H13.5L13.4446 26.9997C12.7881 27.0115 11.8659 26.9093 11.0053 26.6014ZM3 27.0004V13.5004H6V27.0004H3Z" fill="white"/>
</svg>
