<svg width="20" height="18" viewBox="0 0 20 18" fill="none" xmlns="http://www.w3.org/2000/svg">
<path fill-rule="evenodd" clip-rule="evenodd" d="M13.794 0.667006C12.5876 0.666992 11.81 0.810712 10.9186 1.24705C10.5885 1.4086 10.2789 1.60315 9.99132 1.83013C9.71483 1.61588 9.41757 1.43026 9.10118 1.27377C8.19244 0.824305 7.37491 0.666992 6.2118 0.666992C3.0967 0.666992 0.833008 3.24805 0.833008 6.60022C0.833008 9.13179 2.24453 11.5772 4.87371 13.9419C6.25375 15.1831 8.01578 16.4114 9.27768 17.0649L9.99967 17.4388L10.7217 17.0649C11.9836 16.4114 13.7456 15.1831 15.1256 13.9419C17.7548 11.5772 19.1663 9.13179 19.1663 6.60022C19.1663 3.28353 16.8813 0.679791 13.794 0.667006ZM17.4998 6.60038C17.4998 8.58374 16.3217 10.6249 14.0113 12.7029C12.7517 13.8358 11.1323 14.9679 9.99984 15.5619C8.86737 14.9679 7.24802 13.8358 5.9884 12.7029C3.67802 10.6249 2.49984 8.58374 2.49984 6.60038C2.49984 4.12359 4.06954 2.33382 6.21196 2.33382C7.13674 2.33382 7.70661 2.44348 8.36245 2.76786C8.74984 2.95946 9.09223 3.21246 9.38861 3.52863L10.0018 4.18274L10.6094 3.52345C10.9124 3.19461 11.2598 2.93585 11.6514 2.74418C12.2881 2.43257 12.8223 2.33382 13.7907 2.33383C15.9067 2.3426 17.4998 4.15796 17.4998 6.60038Z" fill="white"/>
</svg>
