<svg width="120" height="120" viewBox="0 0 120 120" fill="none" xmlns="http://www.w3.org/2000/svg">
<path d="M79.7921 57.6532L54.8744 39.54C53.96 38.8771 52.746 38.7773 51.7438 39.2924C50.7335 39.8035 50.1025 40.8418 50.1025 41.9638V78.1783C50.1025 79.3123 50.7335 80.3466 51.7438 80.8577C52.171 81.0734 52.6382 81.1812 53.1094 81.1812C53.7244 81.1812 54.3473 80.9855 54.8744 80.5982L79.7921 62.5009C80.5787 61.9219 81.038 61.0274 81.038 60.0771C81.0419 59.1107 80.5707 58.2202 79.7921 57.6532Z" fill="white"/>
<path d="M60.002 0.0078125C26.8583 0.0078125 0 26.8661 0 60.0098C0 93.1415 26.8583 119.992 60.002 119.992C93.1377 119.992 120 93.1375 120 60.0098C120.004 26.8661 93.1377 0.0078125 60.002 0.0078125ZM60.002 109.981C32.4009 109.981 10.023 87.6149 10.023 60.0098C10.023 32.4167 32.4009 10.0228 60.002 10.0228C87.5991 10.0228 109.973 32.4127 109.973 60.0098C109.977 87.6149 87.5991 109.981 60.002 109.981Z" fill="white"/>
</svg>
