<svg xmlns="http://www.w3.org/2000/svg" viewBox="0 0 30 30"><path d="M26,4H4C2.895,4,2,4.895,2,6v18c0,1.105,0.895,2,2,2h22c1.105,0,2-0.895,2-2V6C28,4.895,27.105,4,26,4z M7,24H4v-3h3V24z M7,19H4v-3h3V19z M7,14H4v-3h3V14z M7,9H4V6h3V9z M19.435,15.891l-6.974,3.982C12.321,19.947,12.169,20,12,20 c-0.552,0-1-0.448-1-1v-4v-4c0-0.552,0.448-1,1-1c0.169,0,0.321,0.053,0.461,0.127l6.974,3.982C19.767,14.272,20,14.606,20,15 S19.767,15.728,19.435,15.891z M26,24h-3v-3h3V24z M26,19h-3v-3h3V19z M26,14h-3v-3h3V14z M26,9h-3V6h3V9z"></path></svg>