<svg width="40" height="24" viewBox="0 0 40 24" fill="none" xmlns="http://www.w3.org/2000/svg">
<path d="M34.4257 15.0749C35.7526 16.3704 37.153 17.5891 38.343 19.0152C38.8687 19.649 39.3664 20.3029 39.7472 21.0384C40.2867 22.0838 39.798 23.2343 38.8606 23.2967L33.0333 23.2941C31.5303 23.4187 30.3313 22.8137 29.3232 21.7861C28.5164 20.9643 27.7692 20.0897 26.9934 19.2402C26.6754 18.893 26.3425 18.5662 25.9448 18.308C25.1494 17.7916 24.4588 17.9497 24.0042 18.7794C23.5412 19.6233 23.4362 20.5577 23.3907 21.4981C23.3283 22.8703 22.9135 23.2311 21.5351 23.2939C18.5894 23.4328 15.7938 22.9872 13.1967 21.5012C10.907 20.1912 9.13155 18.3417 7.58608 16.248C4.57725 12.1712 2.27295 7.69141 0.202017 3.08609C-0.264155 2.04852 0.0767821 1.49156 1.22163 1.4718C3.12264 1.43484 5.02342 1.4375 6.9267 1.46914C7.69936 1.48047 8.21084 1.92359 8.5092 2.65352C9.53772 5.1825 10.7962 7.58859 12.3759 9.81883C12.7966 10.4126 13.2256 11.0064 13.8364 11.4243C14.5122 11.887 15.0267 11.7337 15.3446 10.9809C15.5463 10.5035 15.6347 9.98937 15.6801 9.4782C15.8308 7.71937 15.8506 5.96351 15.5865 4.21086C15.4243 3.11703 14.8082 2.40891 13.7167 2.20195C13.1598 2.09641 13.2426 1.88914 13.5123 1.57125C13.9807 1.02297 14.4212 0.681641 15.2994 0.681641H21.8852C22.922 0.88625 23.1522 1.35203 23.2942 2.39523L23.2998 9.71062C23.2885 10.1145 23.5015 11.313 24.229 11.5802C24.8112 11.7705 25.1949 11.3048 25.5443 10.9356C27.1211 9.26211 28.2465 7.2843 29.2519 5.23633C29.698 4.33578 30.0817 3.40062 30.4535 2.46617C30.729 1.77281 31.1612 1.43164 31.9423 1.44672L38.2807 1.45234C38.4687 1.45234 38.6588 1.45508 38.8408 1.48625C39.9089 1.66828 40.2016 2.12773 39.8717 3.1707C39.3519 4.80703 38.3406 6.1707 37.3518 7.54062C36.2948 9.0032 35.1642 10.4158 34.116 11.887C33.1529 13.2308 33.2294 13.908 34.4257 15.0749Z" fill="#436EAB"/>
</svg>
